<svg width="375" height="812" viewBox="0 0 375 812" fill="none" xmlns="http://www.w3.org/2000/svg">
<g clip-path="url(#clip0_307_3253)">
<g clip-path="url(#clip1_307_3253)">
<rect width="1493.33" height="630" transform="translate(-559)" fill="#121214"/>
<g opacity="0.1">
<path fill-rule="evenodd" clip-rule="evenodd" d="M65.909 170.639C65.909 170.639 89.2929 185.928 95.8303 191.53C102.368 197.132 123.84 199.625 128.047 201.182C132.254 202.739 142.335 216.749 142.335 216.749C142.335 216.749 148.144 227.109 149.535 234.536C150.93 241.963 169.577 250.371 169.577 250.371L187.268 257.844C187.268 257.844 159.854 227.023 156.795 219.555C153.731 212.082 157.483 205.237 149.54 201.187C141.592 197.142 122.273 190.605 120.261 183.132C118.248 175.659 86.8054 149.51 76.8451 144.843C66.8848 140.171 37.3428 128.967 37.3428 128.967C37.3428 128.967 56.5353 160.375 65.9141 170.649L65.909 170.639Z" fill="#633BBC"/>
<path fill-rule="evenodd" clip-rule="evenodd" d="M-60.3239 -15.7598C-60.3239 -15.7598 -16.6908 16.8006 3.4269 25.3806C3.4269 25.3806 28.5905 23.4998 31.9932 25.3806C35.3958 27.2614 50.3413 36.5341 51.8884 40.1441C53.4355 43.749 54.4669 51.4796 57.5561 55.0895C60.6504 58.6944 88.4734 72.0928 98.2668 73.6399C108.06 75.187 131.763 79.8234 136.399 82.9176C141.035 86.0119 139.493 93.2217 142.067 96.8317C144.645 100.437 160.101 106.625 166.285 110.746C172.468 114.866 191.787 113.84 197.586 116.413C203.386 118.992 215.753 126.718 215.753 126.718L220.384 130.838C220.384 130.838 217.8 139.6 220.384 142.174C222.967 144.752 233.787 146.81 233.787 146.81C233.787 146.81 225.541 138.564 225.541 133.412C225.541 128.26 220.384 124.134 220.384 124.134C220.384 124.134 194.624 112.283 191.014 109.188C187.409 106.094 154.939 79.2975 152.366 74.6612C149.787 70.0249 144.12 57.1423 141.03 53.5323C137.936 49.9274 108.566 42.1968 101.351 39.1025C94.1362 36.0083 84.8534 26.7356 80.4749 19.005C76.1015 11.2745 67.8552 -10.1224 65.2766 -12.9437C62.6981 -15.7649 57.0303 -15.7649 57.0303 -15.7649H-60.334L-60.3239 -15.7598Z" fill="#633BBC"/>
<path fill-rule="evenodd" clip-rule="evenodd" d="M374.896 221.543C374.896 221.543 398.28 236.832 404.817 242.434C411.354 248.036 432.827 250.529 437.034 252.086C441.24 253.643 451.322 267.654 451.322 267.654C451.322 267.654 457.131 278.013 458.522 285.44C459.917 292.868 478.563 301.276 478.563 301.276L496.254 308.748C496.254 308.748 468.841 277.927 465.782 270.46C462.718 262.987 466.47 256.141 458.527 252.091C450.579 248.046 431.26 241.509 429.248 234.036C427.235 226.564 395.792 200.414 385.832 195.747C375.872 191.076 346.33 179.872 346.33 179.872C346.33 179.872 365.522 211.279 374.901 221.553L374.896 221.543Z" fill="#633BBC"/>
<path fill-rule="evenodd" clip-rule="evenodd" d="M380.835 50.4431C380.835 50.4431 411.904 78.2712 430.368 89.091C448.833 99.9108 458.955 95.2745 458.955 95.2745C458.955 95.2745 475.26 100.032 485.236 107.702C495.211 115.372 493.664 129.286 499.848 137.017C506.031 144.747 531.538 139.337 531.538 139.337L569.762 181.56L595.026 208.129C595.026 208.129 567.754 172.57 563.174 164.845C558.593 157.114 526.902 112.283 520.714 104.552C514.53 96.8216 506.026 98.3687 499.843 87.5489C493.659 76.7291 486.702 64.3572 476.651 55.0845C466.605 45.8068 445.754 31.8928 434.535 25.7093C423.315 19.5259 405.538 13.3424 405.538 13.3424L374.621 6.38538L344.478 -10.092H206.116C206.116 -10.092 273.982 36.5341 304.823 48.1275C316.493 52.511 380.83 50.4482 380.83 50.4482L380.835 50.4431Z" fill="#633BBC"/>
<path fill-rule="evenodd" clip-rule="evenodd" d="M-576.501 136.072C-576.501 136.072 -522.397 175.211 -511.537 184.625C-500.677 194.039 -471.504 193.326 -461.847 203.206C-452.19 213.085 -434.874 217.413 -422.749 230.836C-410.625 244.255 -370.47 254.144 -356.784 269.98C-343.092 285.815 -319.81 292.302 -308.075 299.451C-296.34 306.6 -259.972 323.917 -259.972 323.917C-259.972 323.917 -304.369 303.137 -311.609 282.357C-318.849 261.577 -314.738 235.68 -314.738 235.68C-314.738 235.68 -305.436 233.642 -314.738 216.437C-324.041 199.232 -316.27 188.265 -327.95 173.835C-339.629 159.406 -345.216 133.428 -337.227 121.309C-329.239 109.19 -310.628 73.6057 -314.738 52.4364C-318.849 31.2619 -282.719 15.6794 -282.719 15.6794C-282.719 15.6794 -228.084 20.877 -221.516 29.5328C-214.949 38.1937 -166.866 52.4364 -166.866 52.4364C-166.866 52.4364 -128.446 54.5599 -123.208 52.4364C-117.975 50.3129 -101.508 64.1662 -88.0943 76.2854C-74.6808 88.4096 -72.0668 81.0229 -53.4406 93.9965C-34.8094 106.97 -31.2499 126.557 -20.5616 136.077C-20.5616 136.077 -32.5241 115.171 -36.2857 93.9965C-36.2857 93.9965 -17.1489 96.1048 -3.29551 99.5682C10.5579 103.031 17.1963 102.263 26.7673 109.574C36.3383 116.885 46.8749 121.501 46.8749 121.501C46.8749 121.501 30.6654 106.879 26.7673 98.7946C22.8691 90.7152 19.7901 82.6306 14.7897 79.5516C9.78936 76.4725 -46.8123 62.1944 -61.3128 55.4801C-75.8133 48.7657 -88.0943 26.6408 -88.0943 26.6408C-88.0943 26.6408 -121.282 -19.9854 -142.219 -20.6932C-163.155 -21.4011 -199.857 -31.4776 -213.22 -40.8969C-226.583 -50.3162 -270.681 -103.834 -270.681 -103.834H-569.14L-576.501 136.072V136.072Z" fill="#633BBC"/>
<path fill-rule="evenodd" clip-rule="evenodd" d="M-97.7477 229.773C-97.7477 229.773 -74.3639 245.062 -67.8265 250.664C-61.2891 256.266 -39.8163 258.759 -35.6098 260.316C-31.4032 261.873 -21.3216 275.883 -21.3216 275.883C-21.3216 275.883 -15.5123 286.243 -14.1219 293.67C-12.7264 301.098 5.92 309.506 5.92 309.506L23.6109 316.978C23.6109 316.978 -3.80265 286.157 -6.86152 278.689C-9.92544 271.217 -6.17389 264.371 -14.1168 260.321C-22.0648 256.276 -41.3837 249.739 -43.396 242.266C-45.4083 234.793 -76.8514 208.644 -86.8116 203.977C-96.7719 199.306 -126.314 188.102 -126.314 188.102C-126.314 188.102 -107.121 219.509 -97.7427 229.783L-97.7477 229.773Z" fill="#633BBC"/>
</g>
<g opacity="0.64">
</g>
<g opacity="0.64">
<path d="M115.2 117.805C115.481 118.104 115.956 118.174 116.254 117.928C116.553 117.699 116.571 117.26 116.272 116.943C115.991 116.644 115.516 116.574 115.218 116.82C114.919 117.049 114.901 117.488 115.2 117.805Z" fill="white"/>
<path d="M69.9898 110.156C70.1831 110.367 70.4993 110.402 70.6926 110.244C70.8859 110.086 70.9035 109.787 70.6926 109.594C70.4993 109.383 70.1831 109.347 69.9898 109.506C69.7965 109.664 69.7789 109.963 69.9898 110.156Z" fill="white"/>
<path d="M114.101 167.699C113.714 167.769 113.486 168.138 113.609 168.525C113.732 168.912 114.153 169.14 114.54 169.07C114.927 169 115.155 168.63 115.032 168.244C114.909 167.857 114.487 167.628 114.101 167.699Z" fill="white"/>
<path d="M20.1649 162.883C19.9013 162.936 19.7607 163.182 19.8486 163.428C19.9365 163.674 20.2177 163.85 20.4637 163.797C20.7273 163.744 20.8679 163.498 20.78 163.252C20.6921 163.006 20.4109 162.83 20.1649 162.883Z" fill="white"/>
<path d="M176.594 115.169C176.26 115.591 176.365 116.223 176.857 116.593C177.349 116.962 178.017 116.927 178.351 116.505C178.685 116.083 178.58 115.45 178.088 115.081C177.596 114.712 176.928 114.747 176.594 115.169Z" fill="white"/>
</g>
<g opacity="0.64">
<path d="M27.941 48.8974C27.8882 49.249 28.0991 49.5654 28.3979 49.6358C28.6966 49.6885 28.9953 49.46 29.0481 49.126C29.1008 48.7743 28.8899 48.4579 28.5911 48.3875C28.2924 48.3172 27.9937 48.5634 27.941 48.8974Z" fill="white"/>
<path d="M11.4983 44.645C11.4631 44.8735 11.6037 45.0845 11.797 45.1372C12.0079 45.1724 12.2012 45.0142 12.2363 44.7857C12.2714 44.5571 12.1309 44.3461 11.9376 44.2934C11.7267 44.2582 11.5334 44.4164 11.4983 44.645Z" fill="white"/>
<path d="M72.493 99.3728C72.0537 99.3728 71.7022 99.7947 71.7022 100.305C71.7022 100.814 72.0887 101.201 72.5281 101.184C72.9674 101.184 73.3188 100.762 73.3188 100.252C73.3188 99.742 72.9323 99.3552 72.493 99.3728Z" fill="white"/>
</g>
<g opacity="0.64">
<path d="M4.98382 284.971C4.84324 284.215 4.31611 283.705 3.82407 283.863C3.33203 284.004 3.03332 284.76 3.19147 285.516C3.34963 286.272 3.85919 286.781 4.35123 286.623C4.84327 286.465 5.14198 285.727 4.98382 284.971Z" fill="white"/>
<path d="M32.5239 279.185C32.436 278.675 32.0846 278.341 31.7507 278.447C31.4168 278.552 31.2235 279.045 31.329 279.555C31.4168 280.064 31.7682 280.398 32.1021 280.293C32.4359 280.187 32.6293 279.695 32.5239 279.185Z" fill="white"/>
<path d="M95.6286 241.162C96.5424 241.531 97.4211 240.722 97.5792 239.369C97.7374 238.015 97.1223 236.626 96.2085 236.257C95.2947 235.888 94.4161 236.696 94.2579 238.05C94.0998 239.404 94.7148 240.793 95.6286 241.162Z" fill="white"/>
<path d="M84.1194 313.485C84.7345 313.731 85.3144 313.186 85.4198 312.29C85.5253 311.393 85.121 310.461 84.506 310.215C83.8909 309.969 83.3111 310.514 83.2056 311.411C83.1002 312.307 83.5044 313.239 84.1194 313.485Z" fill="white"/>
</g>
<g opacity="0.64">
<path d="M301.821 176.151C302.12 175.957 302.225 175.588 302.067 175.325C301.909 175.061 301.54 174.99 301.241 175.184C300.942 175.377 300.837 175.746 300.995 176.01C301.153 176.274 301.522 176.344 301.821 176.151Z" fill="white"/>
<path d="M309.533 191.218C309.726 191.095 309.797 190.849 309.691 190.673C309.586 190.498 309.34 190.462 309.147 190.585C308.953 190.709 308.883 190.955 308.988 191.13C309.094 191.306 309.34 191.341 309.533 191.218Z" fill="white"/>
<path d="M337.653 222.264C337.67 222.844 338.18 223.231 338.777 223.143C339.375 223.055 339.849 222.493 339.814 221.912C339.797 221.332 339.287 220.946 338.689 221.033C338.092 221.121 337.618 221.684 337.653 222.264Z" fill="white"/>
<path d="M305 225.676C305 226.063 305.352 226.327 305.756 226.257C306.16 226.186 306.459 225.835 306.459 225.448C306.459 225.061 306.108 224.797 305.703 224.868C305.299 224.938 305 225.29 305 225.676Z" fill="white"/>
<path d="M310.122 109.502C310.42 109.819 310.983 109.819 311.352 109.467C311.721 109.133 311.773 108.588 311.475 108.254C311.176 107.937 310.614 107.937 310.245 108.289C309.876 108.623 309.823 109.168 310.122 109.502Z" fill="white"/>
</g>
<g opacity="0.64">
</g>
<path d="M369.888 69.1725C369.378 68.0298 368.148 67.5727 367.129 68.1528C366.11 68.733 365.705 70.1219 366.215 71.2646C366.725 72.4074 367.955 72.8644 368.974 72.2843C369.993 71.7041 370.397 70.3153 369.888 69.1725Z" fill="white"/>
<path d="M223.225 70.5267C223.946 70.5267 224.508 69.8586 224.508 69.0499C224.508 68.2412 223.91 67.6083 223.207 67.6083C222.487 67.6083 221.925 68.2763 221.925 69.085C221.925 69.8938 222.522 70.5267 223.225 70.5267Z" fill="white"/>
<path d="M361.51 116.395C361.985 116.395 362.371 115.956 362.354 115.411C362.354 114.883 361.95 114.444 361.475 114.461C361.001 114.461 360.614 114.901 360.632 115.446C360.632 115.973 361.036 116.413 361.51 116.395Z" fill="white"/>
<path d="M69.5255 123.602C69.0686 122.582 67.9614 122.178 67.0477 122.688C66.1339 123.197 65.7825 124.446 66.2394 125.465C66.6963 126.485 67.8033 126.889 68.7171 126.38C69.6309 125.87 69.9824 124.621 69.5255 123.602Z" fill="white"/>
<g opacity="0.4" filter="url(#filter0_f_307_3253)">
<ellipse cx="173.375" cy="14" rx="688.625" ry="347.083" fill="#633BBC"/>
</g>
<rect opacity="0.8" width="1493.33" height="756" transform="matrix(1 0 0 -1 -559 756)" fill="url(#paint0_linear_307_3253)"/>
</g>
<rect y="629" width="375" height="186" fill="#121214"/>
<g clip-path="url(#clip2_307_3253)">
<mask id="mask0_307_3253" style="mask-type:alpha" maskUnits="userSpaceOnUse" x="81" y="358" width="214" height="94">
<rect x="81" y="358.789" width="213.703" height="93.0434" fill="url(#paint1_linear_307_3253)"/>
</mask>
<g mask="url(#mask0_307_3253)">
<path d="M267.919 371.009L255.84 366.974L206.095 367.129L197.484 364.036L190.198 367.063L159.064 366.978L146.727 361.321H128.789L126.015 366.976H110.381L81 413.764L113.706 450.681H262.068L294.774 413.764L267.917 371.007L267.919 371.009ZM261.313 449.008H114.46L83.087 413.594L111.31 368.649H127.062L129.835 362.994H146.362L158.695 368.649L190.53 368.736L197.527 365.828L205.804 368.803L255.569 368.647L266.818 372.404L292.687 413.59L261.313 449.004V449.008Z" fill="url(#paint2_linear_307_3253)"/>
</g>
<path d="M292.688 413.594L261.313 449.006H114.46L83.0869 413.594L111.309 368.649H127.062L129.835 362.994H146.362L158.697 368.649L190.53 368.738L197.527 365.83L205.804 368.805L255.569 368.649L266.818 372.408L292.688 413.594Z" fill="url(#paint3_linear_307_3253)"/>
<path d="M292.684 413.594L266.819 372.408L255.567 368.651L205.806 368.803L197.528 365.828L190.527 368.736L158.694 368.651L146.362 362.996H129.836L127.063 368.651H111.313L83.0884 413.594H101.962L116.187 424.167H139.226L142.675 413.594H157.619L161.054 398.632H164.462L169.066 396.627L168.101 406.78L180.83 413.594H292.684Z" fill="#4A357D"/>
<path d="M93.0825 408.068H109.161L111.925 402.768H104.794L109.84 393.923L118.106 390.913L120.718 385.909L112.85 388.646L117.037 381.305L114.57 377.577H119.164H125.062L126.836 374.176H114.368L93.0825 408.068Z" fill="white"/>
<path d="M133.282 368.519L123.948 387.565L135.265 394.282L139.706 396.577L132.985 400.226L128.242 412.587H120.63L128.771 393.769L122.689 390.132L111.192 413.588L118.011 418.642H135.217L143.741 392.501L132.092 386.09L138.362 371.596H143.967L147.781 373.199L142.386 375.718L138.703 385.321L144.981 388.694L150.719 371.096L145.148 368.519H133.282Z" fill="white"/>
<path d="M154.265 374.176L144.531 408.068H153.218L156.654 393.107H163.312L171.582 389.506L173.115 377.062L166.731 374.176H154.263H154.265ZM165.428 381.402L164.094 388.788H157.648L160.222 377.575H166.12L170.472 379.345L165.428 381.401V381.402Z" fill="white"/>
<path d="M176.751 374.176L173.949 403.644L182.215 408.068H198.294L196.157 377.062L189.221 374.176H176.753H176.751ZM189.338 384.603L189.546 402.765H182.415L183.362 377.575H189.26L193.792 379.345L189.34 384.603H189.338Z" fill="white"/>
<path d="M200.911 377.075L204.275 408.068H212.962L210.477 393.107H217.134L220.352 408.068H229.041L225.143 393.769L220.03 391.604L223.981 389.506L219.802 374.176H207.333L200.911 377.075ZM216.208 388.788H209.761L208.542 381.441L203.512 379.347L207.899 377.577H213.796L216.208 388.79V388.788Z" fill="white"/>
<path d="M223.024 377.577H228.831L239.194 408.068H247.883L237.229 381.26L231.144 377.536H241.464L239.97 374.176H222.033L223.024 377.577Z" fill="white"/>
<path d="M270.525 388.694L263.194 377.023L254.668 374.176H242.2L248.413 387.565L266.138 394.282L270.979 402.767H263.847L259.156 393.769L249.603 390.132L255.871 403.644L266.612 408.068H282.691L272.914 392.501L255.15 386.09L252.661 381.315L246.12 377.577H256.609L261.026 385.321L270.525 388.694Z" fill="white"/>
<path d="M197.819 370.115C196.909 371.003 195.878 371.826 194.746 372.573C195.984 373.327 197.161 374.187 198.26 375.138C199.192 374.187 200.219 373.327 201.324 372.573C200.059 371.826 198.884 371.003 197.819 370.115Z" fill="#E2D45C"/>
<path d="M102.88 403.879L108.098 394.731C106.163 394.951 104.244 395.177 102.343 395.413L95.0938 406.956H108.487L110.09 403.879H102.88Z" fill="url(#paint4_linear_307_3253)"/>
<path d="M140.288 391.871C138.216 392.006 136.157 392.151 134.111 392.304L135.805 393.309L141.371 396.184L142.398 393.031L140.288 391.871ZM133.875 401.006L129.008 413.699H118.938L127.364 394.223L125.337 393.011C124.351 393.096 123.366 393.183 122.388 393.274L112.6 413.245L118.379 417.53H134.409L141.071 397.101L133.875 401.006Z" fill="url(#paint5_linear_307_3253)"/>
<path d="M166.284 390.601L163.083 391.995H155.771L152.335 406.956H146.009L150.515 391.266C155.7 390.994 160.959 390.772 166.284 390.601Z" fill="url(#paint6_linear_307_3253)"/>
<path d="M197.102 406.956H182.495L175.125 403.014L176.332 390.338C178.139 390.301 179.952 390.271 181.772 390.247L181.26 403.879H190.67L190.515 390.175C191.347 390.173 192.181 390.171 193.017 390.171C193.995 390.171 194.972 390.173 195.945 390.177L197.102 406.956Z" fill="url(#paint7_linear_307_3253)"/>
<path d="M227.586 406.956H221.251L218.033 391.995H209.164L211.65 406.956H205.272L203.458 390.236C208.884 390.303 214.254 390.423 219.558 390.594L217.444 391.717L224.212 394.582L227.586 406.956Z" fill="url(#paint8_linear_307_3253)"/>
<path d="M240.11 391.52C238.298 391.415 236.476 391.315 234.645 391.222L239.992 406.956H246.245L240.11 391.52Z" fill="url(#paint9_linear_307_3253)"/>
<path d="M272.64 394.154C270.781 393.96 268.909 393.771 267.023 393.589L272.894 403.879H263.173L258.365 394.659L252.243 392.327C252.106 392.316 251.971 392.306 251.833 392.297L256.699 402.782L266.832 406.956H280.681L272.64 394.154Z" fill="url(#paint10_linear_307_3253)"/>
<path fill-rule="evenodd" clip-rule="evenodd" d="M169.592 433.009V430.721L163.273 433.072H163.26V435.418H163.273L169.592 437.768V435.477L166.354 434.239L169.592 433.009Z" fill="#996DFF"/>
<path fill-rule="evenodd" clip-rule="evenodd" d="M206.19 437.65V435.362L209.427 434.132L206.19 432.901V430.614L212.5 432.962H212.514V435.311H212.5L206.19 437.648V437.65ZM203.481 427.383L199.77 439.294H201.974L205.684 427.383H203.481Z" fill="#996DFF"/>
<path fill-rule="evenodd" clip-rule="evenodd" d="M178.876 430.289C179.502 430.979 179.832 431.887 179.793 432.818V437.891H177.59V433.283C177.616 432.769 177.451 432.265 177.13 431.865C176.824 431.509 176.372 431.313 175.903 431.333C174.524 431.333 173.833 432.289 173.833 434.204V437.892H171.629V429.563H173.833V430.315C174.531 429.635 175.48 429.274 176.455 429.315C177.363 429.276 178.246 429.632 178.874 430.289H178.876Z" fill="white"/>
<path fill-rule="evenodd" clip-rule="evenodd" d="M182.598 426.099V438.009H184.801V426.099H182.598Z" fill="white"/>
<path fill-rule="evenodd" clip-rule="evenodd" d="M197.253 437.574H195.414L193.613 432.667L191.794 437.574H189.959L186.872 429.229H189.225L190.96 434.219L192.749 429.229H194.467L196.256 434.236L197.99 429.229H200.344L197.253 437.574Z" fill="white"/>
<path d="M89.9838 365.447C92.4785 359.421 97.5162 354.672 104.952 351.334C112.077 348.135 121.105 346.356 131.783 346.048C153.672 345.416 180.097 351.017 206.184 361.825C208.06 362.601 209.919 363.398 211.758 364.216L209.157 364.223C208.041 363.74 206.916 363.263 205.782 362.794C152.334 340.657 100.821 342.026 90.9531 365.849C88.0951 372.747 89.0385 380.782 93.1198 389.256C103.127 410.048 132.016 433.478 169.99 449.206C173.663 450.728 177.341 452.144 181.012 453.454C203.289 461.409 225.291 465.44 243.959 464.901C254.5 464.597 263.391 462.849 270.39 459.708C277.575 456.483 282.43 451.921 284.819 446.151C286.974 440.945 286.967 435.092 285.078 428.89L285.885 427.98C288.098 434.816 288.068 441.056 285.79 446.554C283.293 452.579 278.258 457.328 270.82 460.666C263.695 463.865 254.669 465.644 243.991 465.952C242.875 465.983 241.748 466 240.61 466C221.792 466 199.934 461.613 177.943 453.454C175.157 452.422 172.372 451.328 169.588 450.175C143.5 439.37 120.855 424.648 105.823 408.721C99.9127 402.458 95.4348 396.279 92.4674 390.294C91.752 388.854 91.1255 387.427 90.588 386.012C87.691 378.393 87.4872 371.474 89.9838 365.447Z" fill="url(#paint11_linear_307_3253)"/>
<path d="M89.9838 365.447C92.4785 359.421 97.5162 354.672 104.952 351.334C112.077 348.135 121.105 346.356 131.783 346.048C153.672 345.416 180.097 351.017 206.184 361.825C208.06 362.601 209.919 363.398 211.758 364.216L209.157 364.223C208.041 363.74 206.916 363.263 205.782 362.794C152.334 340.657 100.821 342.026 90.9531 365.849C88.0951 372.747 89.0385 380.782 93.1198 389.256C103.127 410.048 132.016 433.478 169.99 449.206C173.663 450.728 177.341 452.144 181.012 453.454C203.289 461.409 225.291 465.44 243.959 464.901C254.5 464.597 263.391 462.849 270.39 459.708C277.575 456.483 282.43 451.921 284.819 446.151C286.974 440.945 286.967 435.092 285.078 428.89L285.885 427.98C288.098 434.816 288.068 441.056 285.79 446.554C283.293 452.579 278.258 457.328 270.82 460.666C263.695 463.865 254.669 465.644 243.991 465.952C242.875 465.983 241.748 466 240.61 466C221.792 466 199.934 461.613 177.943 453.454C175.157 452.422 172.372 451.328 169.588 450.175C143.5 439.37 120.855 424.648 105.823 408.721C99.9127 402.458 95.4348 396.279 92.4674 390.294C91.752 388.854 91.1255 387.427 90.588 386.012C87.691 378.393 87.4872 371.474 89.9838 365.447Z" fill="url(#paint12_radial_307_3253)"/>
<path d="M89.9838 365.447C92.4785 359.421 97.5162 354.672 104.952 351.334C112.077 348.135 121.105 346.356 131.783 346.048C153.672 345.416 180.097 351.017 206.184 361.825C208.06 362.601 209.919 363.398 211.758 364.216L209.157 364.223C208.041 363.74 206.916 363.263 205.782 362.794C152.334 340.657 100.821 342.026 90.9531 365.849C88.0951 372.747 89.0385 380.782 93.1198 389.256C103.127 410.048 132.016 433.478 169.99 449.206C173.663 450.728 177.341 452.144 181.012 453.454C203.289 461.409 225.291 465.44 243.959 464.901C254.5 464.597 263.391 462.849 270.39 459.708C277.575 456.483 282.43 451.921 284.819 446.151C286.974 440.945 286.967 435.092 285.078 428.89L285.885 427.98C288.098 434.816 288.068 441.056 285.79 446.554C283.293 452.579 278.258 457.328 270.82 460.666C263.695 463.865 254.669 465.644 243.991 465.952C242.875 465.983 241.748 466 240.61 466C221.792 466 199.934 461.613 177.943 453.454C175.157 452.422 172.372 451.328 169.588 450.175C143.5 439.37 120.855 424.648 105.823 408.721C99.9127 402.458 95.4348 396.279 92.4674 390.294C91.752 388.854 91.1255 387.427 90.588 386.012C87.691 378.393 87.4872 371.474 89.9838 365.447Z" fill="url(#paint13_radial_307_3253)"/>
<path d="M89.9838 365.447C92.4785 359.421 97.5162 354.672 104.952 351.334C112.077 348.135 121.105 346.356 131.783 346.048C153.672 345.416 180.097 351.017 206.184 361.825C208.06 362.601 209.919 363.398 211.758 364.216L209.157 364.223C208.041 363.74 206.916 363.263 205.782 362.794C152.334 340.657 100.821 342.026 90.9531 365.849C88.0951 372.747 89.0385 380.782 93.1198 389.256C103.127 410.048 132.016 433.478 169.99 449.206C173.663 450.728 177.341 452.144 181.012 453.454C203.289 461.409 225.291 465.44 243.959 464.901C254.5 464.597 263.391 462.849 270.39 459.708C277.575 456.483 282.43 451.921 284.819 446.151C286.974 440.945 286.967 435.092 285.078 428.89L285.885 427.98C288.098 434.816 288.068 441.056 285.79 446.554C283.293 452.579 278.258 457.328 270.82 460.666C263.695 463.865 254.669 465.644 243.991 465.952C242.875 465.983 241.748 466 240.61 466C221.792 466 199.934 461.613 177.943 453.454C175.157 452.422 172.372 451.328 169.588 450.175C143.5 439.37 120.855 424.648 105.823 408.721C99.9127 402.458 95.4348 396.279 92.4674 390.294C91.752 388.854 91.1255 387.427 90.588 386.012C87.691 378.393 87.4872 371.474 89.9838 365.447Z" fill="url(#paint14_radial_307_3253)"/>
<path d="M285.79 365.447C283.295 359.421 278.257 354.672 270.821 351.334C263.697 348.135 254.669 346.356 243.991 346.048C222.102 345.416 195.677 351.017 169.589 361.825C167.714 362.601 165.855 363.398 164.016 364.216L166.617 364.223C167.732 363.74 168.857 363.263 169.992 362.794C223.44 340.657 274.953 342.026 284.821 365.849C287.679 372.747 286.735 380.782 282.654 389.256C272.647 410.048 243.757 433.478 205.784 449.206C202.11 450.728 198.433 452.144 194.761 453.454C172.485 461.409 150.482 465.44 131.814 464.901C121.274 464.597 112.383 462.849 105.384 459.708C98.1981 456.483 93.3439 451.921 90.9548 446.151C88.7993 440.945 88.8067 435.092 90.6954 428.89L89.8891 427.98C87.6761 434.816 87.7057 441.056 89.9836 446.554C92.4802 452.579 97.5161 457.328 104.954 460.666C112.079 463.865 121.105 465.644 131.783 465.952C132.898 465.983 134.025 466 135.163 466C153.982 466 175.839 461.613 197.831 453.454C200.616 452.422 203.402 451.328 206.186 450.175C232.273 439.37 254.919 424.648 269.95 408.721C275.861 402.458 280.339 396.279 283.306 390.294C284.022 388.854 284.648 387.427 285.186 386.012C288.083 378.393 288.286 371.474 285.79 365.447Z" fill="url(#paint15_linear_307_3253)"/>
<path d="M285.79 365.447C283.295 359.421 278.257 354.672 270.821 351.334C263.697 348.135 254.669 346.356 243.991 346.048C222.102 345.416 195.677 351.017 169.589 361.825C167.714 362.601 165.855 363.398 164.016 364.216L166.617 364.223C167.732 363.74 168.857 363.263 169.992 362.794C223.44 340.657 274.953 342.026 284.821 365.849C287.679 372.747 286.735 380.782 282.654 389.256C272.647 410.048 243.757 433.478 205.784 449.206C202.11 450.728 198.433 452.144 194.761 453.454C172.485 461.409 150.482 465.44 131.814 464.901C121.274 464.597 112.383 462.849 105.384 459.708C98.1981 456.483 93.3439 451.921 90.9548 446.151C88.7993 440.945 88.8067 435.092 90.6954 428.89L89.8891 427.98C87.6761 434.816 87.7057 441.056 89.9836 446.554C92.4802 452.579 97.5161 457.328 104.954 460.666C112.079 463.865 121.105 465.644 131.783 465.952C132.898 465.983 134.025 466 135.163 466C153.982 466 175.839 461.613 197.831 453.454C200.616 452.422 203.402 451.328 206.186 450.175C232.273 439.37 254.919 424.648 269.95 408.721C275.861 402.458 280.339 396.279 283.306 390.294C284.022 388.854 284.648 387.427 285.186 386.012C288.083 378.393 288.286 371.474 285.79 365.447Z" fill="url(#paint16_radial_307_3253)"/>
<path d="M285.79 365.447C283.295 359.421 278.257 354.672 270.821 351.334C263.697 348.135 254.669 346.356 243.991 346.048C222.102 345.416 195.677 351.017 169.589 361.825C167.714 362.601 165.855 363.398 164.016 364.216L166.617 364.223C167.732 363.74 168.857 363.263 169.992 362.794C223.44 340.657 274.953 342.026 284.821 365.849C287.679 372.747 286.735 380.782 282.654 389.256C272.647 410.048 243.757 433.478 205.784 449.206C202.11 450.728 198.433 452.144 194.761 453.454C172.485 461.409 150.482 465.44 131.814 464.901C121.274 464.597 112.383 462.849 105.384 459.708C98.1981 456.483 93.3439 451.921 90.9548 446.151C88.7993 440.945 88.8067 435.092 90.6954 428.89L89.8891 427.98C87.6761 434.816 87.7057 441.056 89.9836 446.554C92.4802 452.579 97.5161 457.328 104.954 460.666C112.079 463.865 121.105 465.644 131.783 465.952C132.898 465.983 134.025 466 135.163 466C153.982 466 175.839 461.613 197.831 453.454C200.616 452.422 203.402 451.328 206.186 450.175C232.273 439.37 254.919 424.648 269.95 408.721C275.861 402.458 280.339 396.279 283.306 390.294C284.022 388.854 284.648 387.427 285.186 386.012C288.083 378.393 288.286 371.474 285.79 365.447Z" fill="url(#paint17_radial_307_3253)"/>
</g>
<path d="M80 0H295C292.931 0.603211 291.484 2.46837 291.414 4.62256L291.384 5.5618C291.384 19.0587 280.442 30 266.946 30H108.054C94.5576 30 83.6162 19.0587 83.6162 5.5618L83.5858 4.62257C83.516 2.46838 82.0692 0.603211 80 0Z" fill="#1E1E1E"/>
<path opacity="0.35" d="M336.5 22C336.5 20.8034 337.47 19.8334 338.667 19.8334H355.333C356.53 19.8334 357.5 20.8034 357.5 22V28C357.5 29.1967 356.53 30.1667 355.333 30.1667H338.667C337.47 30.1667 336.5 29.1967 336.5 28V22Z" fill="white" stroke="#DCDCE5"/>
<path opacity="0.4" d="M359 23V27C359.805 26.6613 360.328 25.8732 360.328 25C360.328 24.1269 359.805 23.3388 359 23Z" fill="white"/>
<path d="M338 22.6667C338 21.9303 338.597 21.3334 339.333 21.3334H354.667C355.403 21.3334 356 21.9303 356 22.6667V27.3334C356 28.0698 355.403 28.6667 354.667 28.6667H339.333C338.597 28.6667 338 28.0698 338 27.3334V22.6667Z" fill="white"/>
<path fill-rule="evenodd" clip-rule="evenodd" d="M323.33 21.608C325.546 21.6081 327.677 22.4596 329.283 23.9863C329.404 24.1042 329.597 24.1027 329.716 23.983L330.872 22.8163C330.933 22.7556 330.966 22.6734 330.966 22.5878C330.965 22.5022 330.931 22.4204 330.87 22.3603C326.655 18.3208 320.005 18.3208 315.79 22.3603C315.729 22.4203 315.694 22.5021 315.693 22.5877C315.693 22.6733 315.726 22.7556 315.787 22.8163L316.943 23.983C317.062 24.1029 317.255 24.1044 317.376 23.9863C318.982 22.4595 321.114 21.608 323.33 21.608ZM323.33 25.4037C324.547 25.4036 325.721 25.8561 326.624 26.6733C326.746 26.7893 326.938 26.7868 327.057 26.6677L328.212 25.501C328.273 25.4398 328.307 25.3568 328.306 25.2705C328.305 25.1843 328.269 25.102 328.207 25.042C325.459 22.4856 321.203 22.4856 318.455 25.042C318.393 25.102 318.357 25.1843 318.357 25.2706C318.356 25.3569 318.39 25.4399 318.451 25.501L319.605 26.6677C319.724 26.7868 319.916 26.7893 320.038 26.6733C320.94 25.8567 322.113 25.4042 323.33 25.4037ZM325.643 27.9575C325.645 28.044 325.611 28.1274 325.549 28.188L323.552 30.2037C323.493 30.2629 323.413 30.2963 323.33 30.2963C323.247 30.2963 323.167 30.2629 323.108 30.2037L321.111 28.188C321.049 28.1274 321.015 28.0439 321.017 27.9574C321.019 27.8709 321.056 27.789 321.12 27.731C322.396 26.6521 324.264 26.6521 325.54 27.731C325.604 27.7891 325.641 27.871 325.643 27.9575Z" fill="white"/>
<path fill-rule="evenodd" clip-rule="evenodd" d="M309.667 19.6666H308.667C308.114 19.6666 307.667 20.1143 307.667 20.6666V29.3333C307.667 29.8856 308.114 30.3333 308.667 30.3333H309.667C310.219 30.3333 310.667 29.8856 310.667 29.3333V20.6666C310.667 20.1143 310.219 19.6666 309.667 19.6666ZM304 22H305C305.552 22 306 22.4477 306 23V29.3333C306 29.8856 305.552 30.3333 305 30.3333H304C303.448 30.3333 303 29.8856 303 29.3333V23C303 22.4477 303.448 22 304 22ZM300.333 24.3333H299.333C298.781 24.3333 298.333 24.781 298.333 25.3333V29.3333C298.333 29.8856 298.781 30.3333 299.333 30.3333H300.333C300.885 30.3333 301.333 29.8856 301.333 29.3333V25.3333C301.333 24.781 300.885 24.3333 300.333 24.3333ZM295.667 26.3333H294.667C294.114 26.3333 293.667 26.781 293.667 27.3333V29.3333C293.667 29.8856 294.114 30.3333 294.667 30.3333H295.667C296.219 30.3333 296.667 29.8856 296.667 29.3333V27.3333C296.667 26.781 296.219 26.3333 295.667 26.3333Z" fill="white"/>
<path d="M37.3208 30.2563C40.0088 30.2563 41.6055 28.1543 41.6055 24.5947C41.6055 23.2544 41.3491 22.1265 40.8584 21.2549C40.1479 19.8999 38.9248 19.1675 37.3794 19.1675C35.0796 19.1675 33.4536 20.7129 33.4536 22.8809C33.4536 24.917 34.9185 26.3965 36.9326 26.3965C38.1704 26.3965 39.1738 25.8179 39.6719 24.8145H39.6938C39.6938 24.8145 39.7231 24.8145 39.7305 24.8145C39.7451 24.8145 39.7964 24.8145 39.7964 24.8145C39.7964 27.2314 38.8809 28.6743 37.3354 28.6743C36.4272 28.6743 35.7241 28.1763 35.4824 27.3779H33.6001C33.915 29.1138 35.3872 30.2563 37.3208 30.2563ZM37.3867 24.895C36.1709 24.895 35.3066 24.0308 35.3066 22.8223C35.3066 21.6431 36.2148 20.7422 37.394 20.7422C38.5732 20.7422 39.4814 21.6577 39.4814 22.8516C39.4814 24.0308 38.5952 24.895 37.3867 24.895Z" fill="white"/>
<path d="M44.6966 30.1538C45.3924 30.1538 45.8685 29.6558 45.8685 28.9966C45.8685 28.3301 45.3924 27.8394 44.6966 27.8394C44.0081 27.8394 43.5247 28.3301 43.5247 28.9966C43.5247 29.6558 44.0081 30.1538 44.6966 30.1538ZM44.6966 24.6606C45.3924 24.6606 45.8685 24.1699 45.8685 23.5107C45.8685 22.8442 45.3924 22.3535 44.6966 22.3535C44.0081 22.3535 43.5247 22.8442 43.5247 23.5107C43.5247 24.1699 44.0081 24.6606 44.6966 24.6606Z" fill="white"/>
<path d="M52.7242 30H54.5333V28.0298H55.9615V26.4331H54.5333V19.4312H51.8673C49.9996 22.2437 48.5128 24.5947 47.5606 26.3452V28.0298H52.7242V30ZM49.3111 26.3672C50.5416 24.1992 51.6402 22.4634 52.651 20.9692H52.7535V26.4771H49.3111V26.3672Z" fill="white"/>
<path d="M59.9901 30H61.8798V19.4312H59.9975L57.2362 21.3647V23.1812L59.8656 21.3354H59.9901V30Z" fill="white"/>
<rect x="120" y="799" width="135" height="5" rx="2.5" fill="#666666"/>
</g>
<defs>
<filter id="filter0_f_307_3253" x="-865.25" y="-683.083" width="2077.25" height="1394.17" filterUnits="userSpaceOnUse" color-interpolation-filters="sRGB">
<feFlood flood-opacity="0" result="BackgroundImageFix"/>
<feBlend mode="normal" in="SourceGraphic" in2="BackgroundImageFix" result="shape"/>
<feGaussianBlur stdDeviation="175" result="effect1_foregroundBlur_307_3253"/>
</filter>
<linearGradient id="paint0_linear_307_3253" x1="746.667" y1="0" x2="746.667" y2="756" gradientUnits="userSpaceOnUse">
<stop stop-color="#121214"/>
<stop offset="1" stop-color="#121214" stop-opacity="0"/>
</linearGradient>
<linearGradient id="paint1_linear_307_3253" x1="187.852" y1="402.067" x2="187.852" y2="447.662" gradientUnits="userSpaceOnUse">
<stop stop-color="#D9D9D9"/>
<stop offset="1" stop-color="#D9D9D9" stop-opacity="0"/>
</linearGradient>
<linearGradient id="paint2_linear_307_3253" x1="81" y1="406" x2="294.775" y2="406" gradientUnits="userSpaceOnUse">
<stop stop-color="#996DFF"/>
<stop offset="0.5" stop-color="#35E8B3"/>
<stop offset="1" stop-color="#E2D45C"/>
</linearGradient>
<linearGradient id="paint3_linear_307_3253" x1="187.887" y1="414.934" x2="187.887" y2="448.125" gradientUnits="userSpaceOnUse">
<stop stop-color="#28203E"/>
<stop offset="1" stop-color="#121214" stop-opacity="0"/>
</linearGradient>
<linearGradient id="paint4_linear_307_3253" x1="102.593" y1="391.762" x2="102.593" y2="404.841" gradientUnits="userSpaceOnUse">
<stop stop-color="#A9A9AD"/>
<stop offset="1" stop-color="#A9A9AD" stop-opacity="0"/>
</linearGradient>
<linearGradient id="paint5_linear_307_3253" x1="127.5" y1="391.761" x2="127.5" y2="404.841" gradientUnits="userSpaceOnUse">
<stop stop-color="#A9A9AD"/>
<stop offset="1" stop-color="#A9A9AD" stop-opacity="0"/>
</linearGradient>
<linearGradient id="paint6_linear_307_3253" x1="156.147" y1="391.761" x2="156.147" y2="404.841" gradientUnits="userSpaceOnUse">
<stop stop-color="#A9A9AD"/>
<stop offset="1" stop-color="#A9A9AD" stop-opacity="0"/>
</linearGradient>
<linearGradient id="paint7_linear_307_3253" x1="186.115" y1="391.761" x2="186.115" y2="404.841" gradientUnits="userSpaceOnUse">
<stop stop-color="#A9A9AD"/>
<stop offset="1" stop-color="#A9A9AD" stop-opacity="0"/>
</linearGradient>
<linearGradient id="paint8_linear_307_3253" x1="215.522" y1="391.761" x2="215.522" y2="404.841" gradientUnits="userSpaceOnUse">
<stop stop-color="#A9A9AD"/>
<stop offset="1" stop-color="#A9A9AD" stop-opacity="0"/>
</linearGradient>
<linearGradient id="paint9_linear_307_3253" x1="240.446" y1="391.761" x2="240.446" y2="404.841" gradientUnits="userSpaceOnUse">
<stop stop-color="#A9A9AD"/>
<stop offset="1" stop-color="#A9A9AD" stop-opacity="0"/>
</linearGradient>
<linearGradient id="paint10_linear_307_3253" x1="266.257" y1="391.762" x2="266.257" y2="404.841" gradientUnits="userSpaceOnUse">
<stop stop-color="#A9A9AD"/>
<stop offset="1" stop-color="#A9A9AD" stop-opacity="0"/>
</linearGradient>
<linearGradient id="paint11_linear_307_3253" x1="274.964" y1="431.908" x2="130.58" y2="432.649" gradientUnits="userSpaceOnUse">
<stop stop-color="#996DFF"/>
<stop offset="0.5" stop-color="#35E8B3"/>
<stop offset="1" stop-color="#E2D45C"/>
</linearGradient>
<radialGradient id="paint12_radial_307_3253" cx="0" cy="0" r="1" gradientUnits="userSpaceOnUse" gradientTransform="translate(186.568 455.659) rotate(15.7611) scale(97.0582 161.173)">
<stop stop-color="#171226"/>
<stop offset="1" stop-color="#171226" stop-opacity="0"/>
</radialGradient>
<radialGradient id="paint13_radial_307_3253" cx="0" cy="0" r="1" gradientUnits="userSpaceOnUse" gradientTransform="translate(211.455 364.75) rotate(-157.036) scale(21.8448 36.2751)">
<stop stop-color="#261945"/>
<stop offset="1" stop-color="#261945" stop-opacity="0"/>
</radialGradient>
<radialGradient id="paint14_radial_307_3253" cx="0" cy="0" r="1" gradientUnits="userSpaceOnUse" gradientTransform="translate(286.114 426.455) rotate(76.7293) scale(24.7519 41.1025)">
<stop stop-color="#191326"/>
<stop offset="1" stop-color="#191326" stop-opacity="0"/>
</radialGradient>
<linearGradient id="paint15_linear_307_3253" x1="193.386" y1="359.296" x2="225.659" y2="441.114" gradientUnits="userSpaceOnUse">
<stop stop-color="#996DFF"/>
<stop offset="0.5" stop-color="#35E8B3"/>
<stop offset="1" stop-color="#E2D45C"/>
</linearGradient>
<radialGradient id="paint16_radial_307_3253" cx="0" cy="0" r="1" gradientUnits="userSpaceOnUse" gradientTransform="translate(162.023 366.568) rotate(-19.3523) scale(49.381 82.0011)">
<stop stop-color="#171225"/>
<stop offset="1" stop-color="#171225" stop-opacity="0"/>
</radialGradient>
<radialGradient id="paint17_radial_307_3253" cx="0" cy="0" r="1" gradientUnits="userSpaceOnUse" gradientTransform="translate(89.9771 427.591) rotate(67.4706) scale(33.2168 55.1592)">
<stop stop-color="#191327"/>
<stop offset="1" stop-color="#191327" stop-opacity="0"/>
</radialGradient>
<clipPath id="clip0_307_3253">
<rect width="375" height="812" rx="30" fill="white"/>
</clipPath>
<clipPath id="clip1_307_3253">
<rect width="1493.33" height="630" fill="white" transform="translate(-559)"/>
</clipPath>
<clipPath id="clip2_307_3253">
<rect width="213.775" height="120" fill="white" transform="translate(81 346)"/>
</clipPath>
</defs>
</svg>
