<svg width="214" height="120" viewBox="0 0 214 120" fill="none" xmlns="http://www.w3.org/2000/svg">
<g clip-path="url(#clip0_307_3377)">
<mask id="mask0_307_3377" style="mask-type:alpha" maskUnits="userSpaceOnUse" x="0" y="12" width="214" height="94">
<rect y="12.7888" width="213.703" height="93.0434" fill="url(#paint0_linear_307_3377)"/>
</mask>
<g mask="url(#mask0_307_3377)">
<path d="M186.919 25.0088L174.84 20.9738L125.095 21.1295L116.484 18.0361L109.198 21.0628L78.0637 20.9775L65.7272 15.3208H47.7894L45.0148 20.9757H29.3809L0 67.7642L32.706 104.681H181.068L213.774 67.7642L186.917 25.0069L186.919 25.0088ZM180.313 103.008H33.4604L2.08699 67.5937L30.3095 22.6493H46.062L48.8348 16.9944H65.362L77.6949 22.6493L109.53 22.7364L116.527 19.8284L124.804 22.8032L174.569 22.6475L185.818 26.4044L211.687 67.59L180.313 103.004V103.008Z" fill="url(#paint1_linear_307_3377)"/>
</g>
<path d="M211.688 67.5935L180.313 103.006H33.4603L2.08691 67.5935L30.3094 22.6491H46.0619L48.8347 16.9943H65.3619L77.6967 22.6491L109.53 22.7381L116.527 19.83L124.804 22.8048L174.569 22.6491L185.818 26.408L211.688 67.5935Z" fill="url(#paint2_linear_307_3377)"/>
<path d="M211.684 67.5935L185.819 26.4079L174.567 22.651L124.806 22.8029L116.528 19.8282L109.527 22.7362L77.6944 22.651L65.3616 16.9961H48.8362L46.0634 22.651H30.3128L2.08838 67.5935H20.9621L35.1873 78.1674H58.2258L61.6751 67.5935H76.6194L80.0539 52.6324H83.4624L88.0664 50.627L87.1007 60.7802L99.8302 67.5935H211.684Z" fill="#4A357D"/>
<path d="M12.0825 62.0685H28.1612L30.9247 56.7676H23.7945L28.8396 47.9229L37.106 44.9129L39.7175 39.9086L31.8496 42.6461L36.0366 35.3046L33.5696 31.5773H38.1643H44.062L45.8358 28.1762H33.3676L12.0825 62.0685Z" fill="white"/>
<path d="M52.2818 22.5193L42.9479 41.5654L54.265 48.2823L58.7059 50.5769L51.9853 54.2263L47.2423 66.587H39.6302L47.7705 47.7689L41.6894 44.1324L30.1924 67.5879L37.0112 72.6422H54.2168L62.7409 46.5011L51.0919 40.09L57.3622 25.596H62.967L66.7814 27.1993L61.386 29.7181L57.7032 39.3208L63.9808 42.6941L69.7191 25.0956L64.1477 22.5193H52.2818Z" fill="white"/>
<path d="M73.2651 28.1758L63.5308 62.0681H72.2179L75.6542 47.107H82.3118L90.5819 43.5058L92.1147 31.0617L85.7314 28.1758H73.2632H73.2651ZM84.4284 35.4025L83.094 42.7885H76.6477L79.2221 31.5751H85.1198L89.4717 33.3451L84.4284 35.4006V35.4025Z" fill="white"/>
<path d="M95.7512 28.1758L92.9487 57.6439L101.215 62.0681H117.294L115.157 31.0617L108.221 28.1758H95.753H95.7512ZM108.338 38.6034L108.546 56.7654H101.415L102.362 31.5751H108.26L112.792 33.3451L108.34 38.6034H108.338Z" fill="white"/>
<path d="M119.911 31.0746L123.275 62.0681H131.962L129.477 47.107H136.134L139.352 62.0681H148.041L144.143 47.7687L139.03 45.6039L142.981 43.5058L138.802 28.1758H126.333L119.911 31.0746V31.0746ZM135.208 42.7885H128.761L127.542 35.4414L122.512 33.347L126.899 31.5769H132.796L135.208 42.7903V42.7885Z" fill="white"/>
<path d="M142.024 31.5769H147.831L158.194 62.0681H166.883L156.229 35.2597L150.144 31.5362H160.464L158.97 28.1758H141.033L142.024 31.5769Z" fill="white"/>
<path d="M189.525 42.6939L182.194 31.0227L173.668 28.1758H161.2L167.413 41.5652L185.138 48.2821L189.979 56.7672H182.847L178.156 47.7687L168.603 44.1322L174.871 57.6439L185.612 62.0681H201.691L191.914 46.5009L174.15 40.0898L171.661 35.3153L165.12 31.5769H175.609L180.026 39.3207L189.525 42.6939Z" fill="white"/>
<path d="M116.819 24.1149C115.909 25.0027 114.878 25.8256 113.746 26.5725C114.984 27.3269 116.161 28.1869 117.26 29.1377C118.192 28.1869 119.219 27.3269 120.324 26.5725C119.059 25.8256 117.884 25.0027 116.819 24.1149Z" fill="#E2D45C"/>
<path d="M21.8801 57.8794L27.0976 48.7307C25.1626 48.9513 23.2442 49.1774 21.3426 49.4128L14.0938 60.9561H27.4868L29.09 57.8794H21.8801V57.8794Z" fill="url(#paint3_linear_307_3377)"/>
<path d="M59.2883 45.8706C57.2162 46.0059 55.157 46.1505 53.1108 46.3043L54.8048 47.3089L60.3708 50.1836L61.3976 47.0309L59.2883 45.8706V45.8706ZM52.8754 55.0063L48.0082 67.6988H37.9384L46.3642 48.2227L44.3365 47.0105C43.3505 47.0958 42.3663 47.1829 41.3877 47.2737L31.5996 67.2447L37.3787 71.5298H53.4092L60.0705 51.1011L52.8754 55.0063V55.0063Z" fill="url(#paint4_linear_307_3377)"/>
<path d="M85.2837 44.601L82.0828 45.9948H74.7709L71.3346 60.9559H65.0088L69.5145 45.2664C74.7005 44.994 79.9587 44.7716 85.2837 44.601Z" fill="url(#paint5_linear_307_3377)"/>
<path d="M116.102 60.9561H101.495L94.1255 57.0138L95.3321 44.338C97.1392 44.3009 98.9519 44.2713 100.772 44.2472L100.26 57.8793H109.67L109.515 44.1749C110.347 44.1731 111.181 44.1712 112.017 44.1712C112.995 44.1712 113.972 44.1731 114.945 44.1768L116.102 60.9561V60.9561Z" fill="url(#paint6_linear_307_3377)"/>
<path d="M146.586 60.956H140.251L137.033 45.9949H128.164L130.65 60.956H124.272L122.458 44.236C127.884 44.3027 133.254 44.4232 138.558 44.5937L136.444 45.7169L143.212 48.5823L146.586 60.956V60.956Z" fill="url(#paint7_linear_307_3377)"/>
<path d="M159.11 45.5203C157.298 45.4147 155.476 45.3146 153.645 45.2219L158.992 60.9559H165.245L159.11 45.5203Z" fill="url(#paint8_linear_307_3377)"/>
<path d="M191.64 48.1544C189.781 47.9598 187.909 47.7707 186.023 47.5891L191.894 57.8794H182.173L177.365 48.6585L171.243 46.3269C171.106 46.3157 170.971 46.3065 170.833 46.2972L175.699 56.7822L185.832 60.9562H199.681L191.64 48.1544V48.1544Z" fill="url(#paint9_linear_307_3377)"/>
<path fill-rule="evenodd" clip-rule="evenodd" d="M88.5917 87.0086V84.7215L82.2732 87.0716H82.2603V89.4181H82.2732L88.5917 91.7683V89.4774L85.3537 88.2393L88.5917 87.0086V87.0086Z" fill="#996DFF"/>
<path fill-rule="evenodd" clip-rule="evenodd" d="M125.19 91.6497V89.3625L128.427 88.1318L125.19 86.9011V84.6139L131.5 86.9623H131.514V89.3106H131.5L125.19 91.6478V91.6497ZM122.481 81.3834L118.77 93.2937H120.974L124.684 81.3834H122.481Z" fill="#996DFF"/>
<path fill-rule="evenodd" clip-rule="evenodd" d="M97.8759 84.2895C98.5024 84.979 98.8323 85.8872 98.7934 86.8176V91.8905H96.5896V87.2828C96.6156 86.7694 96.4506 86.2653 96.13 85.8649C95.8241 85.5091 95.3719 85.3126 94.903 85.333C93.524 85.333 92.8327 86.2894 92.8327 88.204V91.8924H90.6289V83.5629H92.8327V84.3154C93.5314 83.6352 94.4804 83.2738 95.4553 83.3146C96.3635 83.2757 97.2457 83.6315 97.8741 84.2895H97.8759Z" fill="white"/>
<path fill-rule="evenodd" clip-rule="evenodd" d="M101.598 80.0989V92.0092H103.801V80.0989H101.598Z" fill="white"/>
<path fill-rule="evenodd" clip-rule="evenodd" d="M116.253 91.5736H114.414L112.613 86.6675L110.794 91.5736H108.959L105.872 83.2293H108.225L109.96 88.2188L111.749 83.2293H113.467L115.256 88.2355L116.99 83.2293H119.344L116.253 91.5736V91.5736Z" fill="white"/>
<path d="M8.98377 19.4465C11.4785 13.421 16.5162 8.67242 23.9523 5.33436C31.0769 2.13529 40.1051 0.355979 50.7828 0.048306C72.6721 -0.583722 99.0968 5.01741 125.184 15.8249C127.06 16.6015 128.919 17.3985 130.758 18.2159L128.157 18.2233C127.041 17.7395 125.916 17.2632 124.782 16.7943C71.3339 -5.34339 19.8209 -3.97369 9.95313 19.8487C7.0951 26.7473 8.03851 34.782 12.1198 43.256C22.1266 64.0481 51.0164 87.4776 88.9899 103.206C92.6635 104.728 96.3407 106.144 100.012 107.454C122.289 115.409 144.291 119.44 162.959 118.901C173.5 118.597 182.391 116.849 189.39 113.708C196.575 110.483 201.43 105.921 203.819 100.151C205.974 94.9451 205.967 89.0919 204.078 82.8903L204.885 81.9802C207.098 88.8157 207.068 95.0563 204.79 100.554C202.293 106.579 197.258 111.328 189.82 114.666C182.695 117.865 173.669 119.644 162.991 119.952C161.875 119.983 160.748 120 159.61 120C140.792 120 118.934 115.613 96.9431 107.454C94.1574 106.422 91.3716 105.328 88.5877 104.175C62.5004 93.3697 39.8549 78.6477 24.8234 62.721C18.9127 56.4582 14.4348 50.2787 11.4674 44.2939C10.752 42.8538 10.1255 41.4267 9.588 40.0125C6.69105 32.3929 6.48717 25.474 8.98377 19.4465V19.4465Z" fill="url(#paint10_linear_307_3377)"/>
<path d="M8.98377 19.4465C11.4785 13.421 16.5162 8.67242 23.9523 5.33436C31.0769 2.13529 40.1051 0.355979 50.7828 0.048306C72.6721 -0.583722 99.0968 5.01741 125.184 15.8249C127.06 16.6015 128.919 17.3985 130.758 18.2159L128.157 18.2233C127.041 17.7395 125.916 17.2632 124.782 16.7943C71.3339 -5.34339 19.8209 -3.97369 9.95313 19.8487C7.0951 26.7473 8.03851 34.782 12.1198 43.256C22.1266 64.0481 51.0164 87.4776 88.9899 103.206C92.6635 104.728 96.3407 106.144 100.012 107.454C122.289 115.409 144.291 119.44 162.959 118.901C173.5 118.597 182.391 116.849 189.39 113.708C196.575 110.483 201.43 105.921 203.819 100.151C205.974 94.9451 205.967 89.0919 204.078 82.8903L204.885 81.9802C207.098 88.8157 207.068 95.0563 204.79 100.554C202.293 106.579 197.258 111.328 189.82 114.666C182.695 117.865 173.669 119.644 162.991 119.952C161.875 119.983 160.748 120 159.61 120C140.792 120 118.934 115.613 96.9431 107.454C94.1574 106.422 91.3716 105.328 88.5877 104.175C62.5004 93.3697 39.8549 78.6477 24.8234 62.721C18.9127 56.4582 14.4348 50.2787 11.4674 44.2939C10.752 42.8538 10.1255 41.4267 9.588 40.0125C6.69105 32.3929 6.48717 25.474 8.98377 19.4465V19.4465Z" fill="url(#paint11_radial_307_3377)"/>
<path d="M8.98377 19.4465C11.4785 13.421 16.5162 8.67242 23.9523 5.33436C31.0769 2.13529 40.1051 0.355979 50.7828 0.048306C72.6721 -0.583722 99.0968 5.01741 125.184 15.8249C127.06 16.6015 128.919 17.3985 130.758 18.2159L128.157 18.2233C127.041 17.7395 125.916 17.2632 124.782 16.7943C71.3339 -5.34339 19.8209 -3.97369 9.95313 19.8487C7.0951 26.7473 8.03851 34.782 12.1198 43.256C22.1266 64.0481 51.0164 87.4776 88.9899 103.206C92.6635 104.728 96.3407 106.144 100.012 107.454C122.289 115.409 144.291 119.44 162.959 118.901C173.5 118.597 182.391 116.849 189.39 113.708C196.575 110.483 201.43 105.921 203.819 100.151C205.974 94.9451 205.967 89.0919 204.078 82.8903L204.885 81.9802C207.098 88.8157 207.068 95.0563 204.79 100.554C202.293 106.579 197.258 111.328 189.82 114.666C182.695 117.865 173.669 119.644 162.991 119.952C161.875 119.983 160.748 120 159.61 120C140.792 120 118.934 115.613 96.9431 107.454C94.1574 106.422 91.3716 105.328 88.5877 104.175C62.5004 93.3697 39.8549 78.6477 24.8234 62.721C18.9127 56.4582 14.4348 50.2787 11.4674 44.2939C10.752 42.8538 10.1255 41.4267 9.588 40.0125C6.69105 32.3929 6.48717 25.474 8.98377 19.4465V19.4465Z" fill="url(#paint12_radial_307_3377)"/>
<path d="M8.98377 19.4465C11.4785 13.421 16.5162 8.67242 23.9523 5.33436C31.0769 2.13529 40.1051 0.355979 50.7828 0.048306C72.6721 -0.583722 99.0968 5.01741 125.184 15.8249C127.06 16.6015 128.919 17.3985 130.758 18.2159L128.157 18.2233C127.041 17.7395 125.916 17.2632 124.782 16.7943C71.3339 -5.34339 19.8209 -3.97369 9.95313 19.8487C7.0951 26.7473 8.03851 34.782 12.1198 43.256C22.1266 64.0481 51.0164 87.4776 88.9899 103.206C92.6635 104.728 96.3407 106.144 100.012 107.454C122.289 115.409 144.291 119.44 162.959 118.901C173.5 118.597 182.391 116.849 189.39 113.708C196.575 110.483 201.43 105.921 203.819 100.151C205.974 94.9451 205.967 89.0919 204.078 82.8903L204.885 81.9802C207.098 88.8157 207.068 95.0563 204.79 100.554C202.293 106.579 197.258 111.328 189.82 114.666C182.695 117.865 173.669 119.644 162.991 119.952C161.875 119.983 160.748 120 159.61 120C140.792 120 118.934 115.613 96.9431 107.454C94.1574 106.422 91.3716 105.328 88.5877 104.175C62.5004 93.3697 39.8549 78.6477 24.8234 62.721C18.9127 56.4582 14.4348 50.2787 11.4674 44.2939C10.752 42.8538 10.1255 41.4267 9.588 40.0125C6.69105 32.3929 6.48717 25.474 8.98377 19.4465V19.4465Z" fill="url(#paint13_radial_307_3377)"/>
<path d="M204.79 19.4465C202.295 13.421 197.257 8.67242 189.821 5.33436C182.697 2.13529 173.669 0.355979 162.991 0.048306C141.101 -0.583722 114.677 5.01741 88.5895 15.8249C86.7138 16.6015 84.8547 17.3985 83.0161 18.2159L85.6165 18.2233C86.7323 17.7395 87.8573 17.2632 88.9917 16.7943C142.44 -5.34339 193.953 -3.97369 203.821 19.8487C206.679 26.7473 205.735 34.782 201.654 43.256C191.647 64.0481 162.757 87.4776 124.784 103.206C121.11 104.728 117.433 106.144 113.761 107.454C91.4846 115.409 69.4822 119.44 50.8142 118.901C40.2736 118.597 31.3826 116.849 24.384 113.708C17.1981 110.483 12.3439 105.921 9.95484 100.151C7.79928 94.9451 7.80669 89.0919 9.69536 82.8903L8.88911 81.9802C6.67608 88.8157 6.70574 95.0563 8.98363 100.554C11.4802 106.579 16.5161 111.328 23.954 114.666C31.0787 117.865 40.105 119.644 50.7827 119.952C51.8985 119.983 53.0254 120 54.1634 120C72.9815 120 94.8393 115.613 116.831 107.454C119.616 106.422 122.402 105.328 125.186 104.175C151.273 93.3697 173.919 78.6477 188.95 62.721C194.861 56.4582 199.339 50.2787 202.306 44.2939C203.022 42.8538 203.648 41.4267 204.186 40.0125C207.083 32.3929 207.286 25.474 204.79 19.4465V19.4465Z" fill="url(#paint14_linear_307_3377)"/>
<path d="M204.79 19.4465C202.295 13.421 197.257 8.67242 189.821 5.33436C182.697 2.13529 173.669 0.355979 162.991 0.048306C141.101 -0.583722 114.677 5.01741 88.5895 15.8249C86.7138 16.6015 84.8547 17.3985 83.0161 18.2159L85.6165 18.2233C86.7323 17.7395 87.8573 17.2632 88.9917 16.7943C142.44 -5.34339 193.953 -3.97369 203.821 19.8487C206.679 26.7473 205.735 34.782 201.654 43.256C191.647 64.0481 162.757 87.4776 124.784 103.206C121.11 104.728 117.433 106.144 113.761 107.454C91.4846 115.409 69.4822 119.44 50.8142 118.901C40.2736 118.597 31.3826 116.849 24.384 113.708C17.1981 110.483 12.3439 105.921 9.95484 100.151C7.79928 94.9451 7.80669 89.0919 9.69536 82.8903L8.88911 81.9802C6.67608 88.8157 6.70574 95.0563 8.98363 100.554C11.4802 106.579 16.5161 111.328 23.954 114.666C31.0787 117.865 40.105 119.644 50.7827 119.952C51.8985 119.983 53.0254 120 54.1634 120C72.9815 120 94.8393 115.613 116.831 107.454C119.616 106.422 122.402 105.328 125.186 104.175C151.273 93.3697 173.919 78.6477 188.95 62.721C194.861 56.4582 199.339 50.2787 202.306 44.2939C203.022 42.8538 203.648 41.4267 204.186 40.0125C207.083 32.3929 207.286 25.474 204.79 19.4465V19.4465Z" fill="url(#paint15_radial_307_3377)"/>
<path d="M204.79 19.4465C202.295 13.421 197.257 8.67242 189.821 5.33436C182.697 2.13529 173.669 0.355979 162.991 0.048306C141.101 -0.583722 114.677 5.01741 88.5895 15.8249C86.7138 16.6015 84.8547 17.3985 83.0161 18.2159L85.6165 18.2233C86.7323 17.7395 87.8573 17.2632 88.9917 16.7943C142.44 -5.34339 193.953 -3.97369 203.821 19.8487C206.679 26.7473 205.735 34.782 201.654 43.256C191.647 64.0481 162.757 87.4776 124.784 103.206C121.11 104.728 117.433 106.144 113.761 107.454C91.4846 115.409 69.4822 119.44 50.8142 118.901C40.2736 118.597 31.3826 116.849 24.384 113.708C17.1981 110.483 12.3439 105.921 9.95484 100.151C7.79928 94.9451 7.80669 89.0919 9.69536 82.8903L8.88911 81.9802C6.67608 88.8157 6.70574 95.0563 8.98363 100.554C11.4802 106.579 16.5161 111.328 23.954 114.666C31.0787 117.865 40.105 119.644 50.7827 119.952C51.8985 119.983 53.0254 120 54.1634 120C72.9815 120 94.8393 115.613 116.831 107.454C119.616 106.422 122.402 105.328 125.186 104.175C151.273 93.3697 173.919 78.6477 188.95 62.721C194.861 56.4582 199.339 50.2787 202.306 44.2939C203.022 42.8538 203.648 41.4267 204.186 40.0125C207.083 32.3929 207.286 25.474 204.79 19.4465V19.4465Z" fill="url(#paint16_radial_307_3377)"/>
</g>
<defs>
<linearGradient id="paint0_linear_307_3377" x1="106.852" y1="56.067" x2="106.852" y2="101.662" gradientUnits="userSpaceOnUse">
<stop stop-color="#D9D9D9"/>
<stop offset="1" stop-color="#D9D9D9" stop-opacity="0"/>
</linearGradient>
<linearGradient id="paint1_linear_307_3377" x1="0" y1="60.0001" x2="213.775" y2="60.0001" gradientUnits="userSpaceOnUse">
<stop stop-color="#996DFF"/>
<stop offset="0.5" stop-color="#35E8B3"/>
<stop offset="1" stop-color="#E2D45C"/>
</linearGradient>
<linearGradient id="paint2_linear_307_3377" x1="106.887" y1="68.9336" x2="106.887" y2="102.125" gradientUnits="userSpaceOnUse">
<stop stop-color="#28203E"/>
<stop offset="1" stop-color="#121214" stop-opacity="0"/>
</linearGradient>
<linearGradient id="paint3_linear_307_3377" x1="21.5928" y1="45.7615" x2="21.5928" y2="58.8413" gradientUnits="userSpaceOnUse">
<stop stop-color="#A9A9AD"/>
<stop offset="1" stop-color="#A9A9AD" stop-opacity="0"/>
</linearGradient>
<linearGradient id="paint4_linear_307_3377" x1="46.4995" y1="45.7613" x2="46.4995" y2="58.8411" gradientUnits="userSpaceOnUse">
<stop stop-color="#A9A9AD"/>
<stop offset="1" stop-color="#A9A9AD" stop-opacity="0"/>
</linearGradient>
<linearGradient id="paint5_linear_307_3377" x1="75.1472" y1="45.7613" x2="75.1472" y2="58.8411" gradientUnits="userSpaceOnUse">
<stop stop-color="#A9A9AD"/>
<stop offset="1" stop-color="#A9A9AD" stop-opacity="0"/>
</linearGradient>
<linearGradient id="paint6_linear_307_3377" x1="105.115" y1="45.7615" x2="105.115" y2="58.8413" gradientUnits="userSpaceOnUse">
<stop stop-color="#A9A9AD"/>
<stop offset="1" stop-color="#A9A9AD" stop-opacity="0"/>
</linearGradient>
<linearGradient id="paint7_linear_307_3377" x1="134.522" y1="45.7614" x2="134.522" y2="58.8412" gradientUnits="userSpaceOnUse">
<stop stop-color="#A9A9AD"/>
<stop offset="1" stop-color="#A9A9AD" stop-opacity="0"/>
</linearGradient>
<linearGradient id="paint8_linear_307_3377" x1="159.446" y1="45.7613" x2="159.446" y2="58.8411" gradientUnits="userSpaceOnUse">
<stop stop-color="#A9A9AD"/>
<stop offset="1" stop-color="#A9A9AD" stop-opacity="0"/>
</linearGradient>
<linearGradient id="paint9_linear_307_3377" x1="185.257" y1="45.7616" x2="185.257" y2="58.8414" gradientUnits="userSpaceOnUse">
<stop stop-color="#A9A9AD"/>
<stop offset="1" stop-color="#A9A9AD" stop-opacity="0"/>
</linearGradient>
<linearGradient id="paint10_linear_307_3377" x1="193.964" y1="85.9077" x2="49.5799" y2="86.649" gradientUnits="userSpaceOnUse">
<stop stop-color="#996DFF"/>
<stop offset="0.5" stop-color="#35E8B3"/>
<stop offset="1" stop-color="#E2D45C"/>
</linearGradient>
<radialGradient id="paint11_radial_307_3377" cx="0" cy="0" r="1" gradientUnits="userSpaceOnUse" gradientTransform="translate(105.568 109.659) rotate(15.7611) scale(97.0582 161.173)">
<stop stop-color="#171226"/>
<stop offset="1" stop-color="#171226" stop-opacity="0"/>
</radialGradient>
<radialGradient id="paint12_radial_307_3377" cx="0" cy="0" r="1" gradientUnits="userSpaceOnUse" gradientTransform="translate(130.455 18.7501) rotate(-157.036) scale(21.8448 36.2751)">
<stop stop-color="#261945"/>
<stop offset="1" stop-color="#261945" stop-opacity="0"/>
</radialGradient>
<radialGradient id="paint13_radial_307_3377" cx="0" cy="0" r="1" gradientUnits="userSpaceOnUse" gradientTransform="translate(205.114 80.4546) rotate(76.7293) scale(24.7519 41.1025)">
<stop stop-color="#191326"/>
<stop offset="1" stop-color="#191326" stop-opacity="0"/>
</radialGradient>
<linearGradient id="paint14_linear_307_3377" x1="112.386" y1="13.2956" x2="144.659" y2="95.1137" gradientUnits="userSpaceOnUse">
<stop stop-color="#996DFF"/>
<stop offset="0.5" stop-color="#35E8B3"/>
<stop offset="1" stop-color="#E2D45C"/>
</linearGradient>
<radialGradient id="paint15_radial_307_3377" cx="0" cy="0" r="1" gradientUnits="userSpaceOnUse" gradientTransform="translate(81.0226 20.5683) rotate(-19.3523) scale(49.381 82.0011)">
<stop stop-color="#171225"/>
<stop offset="1" stop-color="#171225" stop-opacity="0"/>
</radialGradient>
<radialGradient id="paint16_radial_307_3377" cx="0" cy="0" r="1" gradientUnits="userSpaceOnUse" gradientTransform="translate(8.97714 81.591) rotate(67.4706) scale(33.2168 55.1592)">
<stop stop-color="#191327"/>
<stop offset="1" stop-color="#191327" stop-opacity="0"/>
</radialGradient>
<clipPath id="clip0_307_3377">
<rect width="213.775" height="120" fill="white"/>
</clipPath>
</defs>
</svg>
